<?xml version="1.0"?>
<svg width="640" height="480" xmlns="http://www.w3.org/2000/svg" xmlns:svg="http://www.w3.org/2000/svg">
 <!-- Created with SVG-edit - https://github.com/SVG-Edit/svgedit-->

 <g class="layer">
  <title>Layer 1</title>
  <path d="m176.5,96.5l204.5,3.5c18.33333,4 16.66667,33 -8,36l-65,-1c12,39 4.5,115.5 -0.5,140.5c-5,25 -27,100 -70.5,103.5c-43.5,3.5 -95.5,-30.5 -109,-49c-13.5,-18.5 -10.5,-34.5 -3,-51c7.5,-16.5 29.5,-16.5 49,-11c19.5,5.5 25.5,46.5 47,44c21.5,-2.5 28.5,-27.5 36,-47c7.5,-19.5 16.5,-110.5 -5,-122c-21.5,-11.5 -58.5,-1.5 -77,-15c-18.5,-13.5 -11.5,-28.5 1.5,-31.5z" fill="#30cc22" id="svg_3" stroke="#afafaf" stroke-dasharray="null" stroke-linecap="null" stroke-linejoin="null" stroke-width="5" transform="rotate(-16.8266 255.977 237.875)"/>
  <path d="m290.410136,103.59878c18,-17 130,-17 152,0c22,17 41,26 43.5,63.5c2.5,37.5 -56.5,74.5 -90,78c-33.5,3.5 -17.5,1.5 -39,12c-21.5,10.5 15.5,106.5 -3,129c-18.5,22.5 -47.5,23.5 -63,-2c-15.5,-25.5 -18.5,-263.5 -0.5,-280.5z" fill="#00ffff" id="svg_4" stroke="#30cc22" stroke-dasharray="null" stroke-linecap="null" stroke-linejoin="null" stroke-width="5" transform="rotate(-5.412300109863281 382.0252990722656,246.9747543334961)"/>
 </g>
</svg>